<mxfile host="app.diagrams.net" agent="Mozilla/5.0 (X11; Ubuntu; Linux x86_64; rv:129.0) Gecko/20100101 Firefox/129.0" version="24.7.8">
  <diagram name="第 1 页" id="t_m1A_rRb_wPjR3hDyVA">
    <mxGraphModel dx="1368" dy="790" grid="1" gridSize="10" guides="1" tooltips="1" connect="1" arrows="1" fold="1" page="1" pageScale="1" pageWidth="827" pageHeight="1169" math="0" shadow="0">
      <root>
        <mxCell id="0" />
        <mxCell id="1" parent="0" />
        <mxCell id="FpE0hd-Hnbu36rUvG8yk-6" value="功能组件" style="swimlane;horizontal=0;whiteSpace=wrap;html=1;startSize=23;labelBackgroundColor=none;fillColor=#F2CC8F;strokeColor=#E07A5F;fontColor=#393C56;" vertex="1" parent="1">
          <mxGeometry x="170" y="240" width="270" height="440" as="geometry" />
        </mxCell>
        <mxCell id="FpE0hd-Hnbu36rUvG8yk-2" value="A" style="rounded=1;whiteSpace=wrap;html=1;labelBackgroundColor=none;fillColor=#F2CC8F;strokeColor=#E07A5F;fontColor=#393C56;" vertex="1" parent="FpE0hd-Hnbu36rUvG8yk-6">
          <mxGeometry x="80" y="30" width="120" height="60" as="geometry" />
        </mxCell>
        <mxCell id="FpE0hd-Hnbu36rUvG8yk-3" value="B" style="rounded=1;whiteSpace=wrap;html=1;labelBackgroundColor=none;fillColor=#F2CC8F;strokeColor=#E07A5F;fontColor=#393C56;" vertex="1" parent="FpE0hd-Hnbu36rUvG8yk-6">
          <mxGeometry x="80" y="110" width="120" height="60" as="geometry" />
        </mxCell>
        <mxCell id="FpE0hd-Hnbu36rUvG8yk-4" value="C" style="rounded=1;whiteSpace=wrap;html=1;labelBackgroundColor=none;fillColor=#F2CC8F;strokeColor=#E07A5F;fontColor=#393C56;" vertex="1" parent="FpE0hd-Hnbu36rUvG8yk-6">
          <mxGeometry x="80" y="190" width="120" height="60" as="geometry" />
        </mxCell>
        <mxCell id="FpE0hd-Hnbu36rUvG8yk-11" value="D" style="rounded=1;whiteSpace=wrap;html=1;labelBackgroundColor=none;fillColor=#F2CC8F;strokeColor=#E07A5F;fontColor=#393C56;" vertex="1" parent="FpE0hd-Hnbu36rUvG8yk-6">
          <mxGeometry x="80" y="270" width="120" height="60" as="geometry" />
        </mxCell>
        <mxCell id="FpE0hd-Hnbu36rUvG8yk-12" value="E" style="rounded=1;whiteSpace=wrap;html=1;labelBackgroundColor=none;fillColor=#F2CC8F;strokeColor=#E07A5F;fontColor=#393C56;" vertex="1" parent="FpE0hd-Hnbu36rUvG8yk-6">
          <mxGeometry x="80" y="350" width="120" height="60" as="geometry" />
        </mxCell>
        <mxCell id="FpE0hd-Hnbu36rUvG8yk-14" value="" style="shape=curlyBracket;whiteSpace=wrap;html=1;rounded=1;labelPosition=left;verticalLabelPosition=middle;align=right;verticalAlign=middle;labelBackgroundColor=none;fillColor=#F2CC8F;strokeColor=#E07A5F;fontColor=#393C56;" vertex="1" parent="1">
          <mxGeometry x="710" y="250" width="20" height="120" as="geometry" />
        </mxCell>
        <mxCell id="FpE0hd-Hnbu36rUvG8yk-16" value="" style="shape=flexArrow;endArrow=classic;html=1;rounded=0;labelBackgroundColor=none;strokeColor=#E07A5F;fontColor=default;" edge="1" parent="1">
          <mxGeometry width="50" height="50" relative="1" as="geometry">
            <mxPoint x="460" y="550" as="sourcePoint" />
            <mxPoint x="510" y="550" as="targetPoint" />
          </mxGeometry>
        </mxCell>
        <mxCell id="FpE0hd-Hnbu36rUvG8yk-17" value="" style="shape=curlyBracket;whiteSpace=wrap;html=1;rounded=1;labelPosition=left;verticalLabelPosition=middle;align=right;verticalAlign=middle;labelBackgroundColor=none;fillColor=#F2CC8F;strokeColor=#E07A5F;fontColor=#393C56;" vertex="1" parent="1">
          <mxGeometry x="520" y="210" width="10" height="670" as="geometry" />
        </mxCell>
        <mxCell id="FpE0hd-Hnbu36rUvG8yk-18" value="驱动一" style="rounded=1;whiteSpace=wrap;html=1;labelBackgroundColor=none;fillColor=#F2CC8F;strokeColor=#E07A5F;fontColor=#393C56;" vertex="1" parent="1">
          <mxGeometry x="560" y="280" width="120" height="60" as="geometry" />
        </mxCell>
        <mxCell id="FpE0hd-Hnbu36rUvG8yk-21" value="A" style="rounded=1;whiteSpace=wrap;html=1;labelBackgroundColor=none;fillColor=#F2CC8F;strokeColor=#E07A5F;fontColor=#393C56;" vertex="1" parent="1">
          <mxGeometry x="750" y="280" width="120" height="60" as="geometry" />
        </mxCell>
        <mxCell id="FpE0hd-Hnbu36rUvG8yk-22" value="B" style="rounded=1;whiteSpace=wrap;html=1;labelBackgroundColor=none;fillColor=#F2CC8F;strokeColor=#E07A5F;fontColor=#393C56;" vertex="1" parent="1">
          <mxGeometry x="890" y="280" width="120" height="60" as="geometry" />
        </mxCell>
        <mxCell id="FpE0hd-Hnbu36rUvG8yk-25" value="批量组件" style="swimlane;horizontal=0;whiteSpace=wrap;html=1;startSize=23;labelBackgroundColor=none;fillColor=#F2CC8F;strokeColor=#E07A5F;fontColor=#393C56;" vertex="1" parent="1">
          <mxGeometry x="170" y="700" width="270" height="190" as="geometry" />
        </mxCell>
        <mxCell id="FpE0hd-Hnbu36rUvG8yk-26" value="X" style="rounded=1;whiteSpace=wrap;html=1;labelBackgroundColor=none;fillColor=#F2CC8F;strokeColor=#E07A5F;fontColor=#393C56;" vertex="1" parent="FpE0hd-Hnbu36rUvG8yk-25">
          <mxGeometry x="80" y="30" width="120" height="60" as="geometry" />
        </mxCell>
        <mxCell id="FpE0hd-Hnbu36rUvG8yk-27" value="Y" style="rounded=1;whiteSpace=wrap;html=1;labelBackgroundColor=none;fillColor=#F2CC8F;strokeColor=#E07A5F;fontColor=#393C56;" vertex="1" parent="FpE0hd-Hnbu36rUvG8yk-25">
          <mxGeometry x="80" y="110" width="120" height="60" as="geometry" />
        </mxCell>
        <mxCell id="FpE0hd-Hnbu36rUvG8yk-33" value="X" style="rounded=1;whiteSpace=wrap;html=1;labelBackgroundColor=none;fillColor=#F2CC8F;strokeColor=#E07A5F;fontColor=#393C56;" vertex="1" parent="1">
          <mxGeometry x="1040" y="280" width="120" height="60" as="geometry" />
        </mxCell>
        <mxCell id="FpE0hd-Hnbu36rUvG8yk-34" value="" style="shape=curlyBracket;whiteSpace=wrap;html=1;rounded=1;labelPosition=left;verticalLabelPosition=middle;align=right;verticalAlign=middle;labelBackgroundColor=none;fillColor=#F2CC8F;strokeColor=#E07A5F;fontColor=#393C56;" vertex="1" parent="1">
          <mxGeometry x="710" y="410" width="20" height="120" as="geometry" />
        </mxCell>
        <mxCell id="FpE0hd-Hnbu36rUvG8yk-35" value="驱动二" style="rounded=1;whiteSpace=wrap;html=1;labelBackgroundColor=none;fillColor=#F2CC8F;strokeColor=#E07A5F;fontColor=#393C56;" vertex="1" parent="1">
          <mxGeometry x="560" y="440" width="120" height="60" as="geometry" />
        </mxCell>
        <mxCell id="FpE0hd-Hnbu36rUvG8yk-36" value="A" style="rounded=1;whiteSpace=wrap;html=1;labelBackgroundColor=none;fillColor=#F2CC8F;strokeColor=#E07A5F;fontColor=#393C56;" vertex="1" parent="1">
          <mxGeometry x="750" y="440" width="120" height="60" as="geometry" />
        </mxCell>
        <mxCell id="FpE0hd-Hnbu36rUvG8yk-37" value="B" style="rounded=1;whiteSpace=wrap;html=1;labelBackgroundColor=none;fillColor=#F2CC8F;strokeColor=#E07A5F;fontColor=#393C56;" vertex="1" parent="1">
          <mxGeometry x="890" y="440" width="120" height="60" as="geometry" />
        </mxCell>
        <mxCell id="FpE0hd-Hnbu36rUvG8yk-38" value="E" style="rounded=1;whiteSpace=wrap;html=1;labelBackgroundColor=none;fillColor=#F2CC8F;strokeColor=#E07A5F;fontColor=#393C56;" vertex="1" parent="1">
          <mxGeometry x="1040" y="440" width="120" height="60" as="geometry" />
        </mxCell>
        <mxCell id="FpE0hd-Hnbu36rUvG8yk-39" value="" style="shape=curlyBracket;whiteSpace=wrap;html=1;rounded=1;labelPosition=left;verticalLabelPosition=middle;align=right;verticalAlign=middle;labelBackgroundColor=none;fillColor=#F2CC8F;strokeColor=#E07A5F;fontColor=#393C56;" vertex="1" parent="1">
          <mxGeometry x="710" y="585" width="20" height="120" as="geometry" />
        </mxCell>
        <mxCell id="FpE0hd-Hnbu36rUvG8yk-40" value="驱动三" style="rounded=1;whiteSpace=wrap;html=1;labelBackgroundColor=none;fillColor=#F2CC8F;strokeColor=#E07A5F;fontColor=#393C56;" vertex="1" parent="1">
          <mxGeometry x="560" y="615" width="120" height="60" as="geometry" />
        </mxCell>
        <mxCell id="FpE0hd-Hnbu36rUvG8yk-41" value="X" style="rounded=1;whiteSpace=wrap;html=1;labelBackgroundColor=none;fillColor=#F2CC8F;strokeColor=#E07A5F;fontColor=#393C56;" vertex="1" parent="1">
          <mxGeometry x="750" y="615" width="120" height="60" as="geometry" />
        </mxCell>
        <mxCell id="FpE0hd-Hnbu36rUvG8yk-42" value="B" style="rounded=1;whiteSpace=wrap;html=1;labelBackgroundColor=none;fillColor=#F2CC8F;strokeColor=#E07A5F;fontColor=#393C56;" vertex="1" parent="1">
          <mxGeometry x="890" y="615" width="120" height="60" as="geometry" />
        </mxCell>
        <mxCell id="FpE0hd-Hnbu36rUvG8yk-43" value="" style="shape=waypoint;sketch=0;fillStyle=solid;size=6;pointerEvents=1;points=[];fillColor=none;resizable=0;rotatable=0;perimeter=centerPerimeter;snapToPoint=1;labelBackgroundColor=none;strokeColor=#E07A5F;fontColor=#393C56;" vertex="1" parent="1">
          <mxGeometry x="610" y="740" width="20" height="20" as="geometry" />
        </mxCell>
        <mxCell id="FpE0hd-Hnbu36rUvG8yk-44" value="" style="shape=waypoint;sketch=0;fillStyle=solid;size=6;pointerEvents=1;points=[];fillColor=none;resizable=0;rotatable=0;perimeter=centerPerimeter;snapToPoint=1;labelBackgroundColor=none;strokeColor=#E07A5F;fontColor=#393C56;" vertex="1" parent="1">
          <mxGeometry x="610" y="770" width="20" height="20" as="geometry" />
        </mxCell>
        <mxCell id="FpE0hd-Hnbu36rUvG8yk-45" value="" style="shape=waypoint;sketch=0;fillStyle=solid;size=6;pointerEvents=1;points=[];fillColor=none;resizable=0;rotatable=0;perimeter=centerPerimeter;snapToPoint=1;labelBackgroundColor=none;strokeColor=#E07A5F;fontColor=#393C56;" vertex="1" parent="1">
          <mxGeometry x="610" y="810" width="20" height="20" as="geometry" />
        </mxCell>
        <mxCell id="FpE0hd-Hnbu36rUvG8yk-66" value="" style="edgeStyle=orthogonalEdgeStyle;rounded=0;orthogonalLoop=1;jettySize=auto;html=1;labelBackgroundColor=none;strokeColor=#E07A5F;fontColor=default;" edge="1" parent="1" source="FpE0hd-Hnbu36rUvG8yk-46" target="FpE0hd-Hnbu36rUvG8yk-55">
          <mxGeometry relative="1" as="geometry" />
        </mxCell>
        <mxCell id="FpE0hd-Hnbu36rUvG8yk-46" value="组件A" style="rounded=1;whiteSpace=wrap;html=1;labelBackgroundColor=none;fillColor=#F2CC8F;strokeColor=#E07A5F;fontColor=#393C56;" vertex="1" parent="1">
          <mxGeometry x="245" y="1100" width="120" height="60" as="geometry" />
        </mxCell>
        <mxCell id="FpE0hd-Hnbu36rUvG8yk-47" value="" style="endArrow=classic;html=1;rounded=0;labelBackgroundColor=none;strokeColor=#E07A5F;fontColor=default;" edge="1" parent="1">
          <mxGeometry relative="1" as="geometry">
            <mxPoint x="110" y="1010" as="sourcePoint" />
            <mxPoint x="1180" y="1010" as="targetPoint" />
          </mxGeometry>
        </mxCell>
        <mxCell id="FpE0hd-Hnbu36rUvG8yk-48" value="驱动一" style="edgeLabel;resizable=0;html=1;;align=center;verticalAlign=middle;fontSize=20;labelBackgroundColor=none;fontColor=#393C56;" connectable="0" vertex="1" parent="FpE0hd-Hnbu36rUvG8yk-47">
          <mxGeometry relative="1" as="geometry">
            <mxPoint x="-425" as="offset" />
          </mxGeometry>
        </mxCell>
        <mxCell id="FpE0hd-Hnbu36rUvG8yk-49" value="&lt;font style=&quot;font-size: 20px;&quot;&gt;批处理&lt;/font&gt;" style="edgeLabel;resizable=0;html=1;;align=left;verticalAlign=bottom;labelBackgroundColor=none;fontColor=#393C56;" connectable="0" vertex="1" parent="FpE0hd-Hnbu36rUvG8yk-47">
          <mxGeometry x="-1" relative="1" as="geometry" />
        </mxCell>
        <mxCell id="FpE0hd-Hnbu36rUvG8yk-67" value="" style="edgeStyle=orthogonalEdgeStyle;rounded=0;orthogonalLoop=1;jettySize=auto;html=1;labelBackgroundColor=none;strokeColor=#E07A5F;fontColor=default;" edge="1" parent="1" source="FpE0hd-Hnbu36rUvG8yk-50" target="FpE0hd-Hnbu36rUvG8yk-65">
          <mxGeometry relative="1" as="geometry" />
        </mxCell>
        <mxCell id="FpE0hd-Hnbu36rUvG8yk-50" value="组件B" style="rounded=1;whiteSpace=wrap;html=1;labelBackgroundColor=none;fillColor=#F2CC8F;strokeColor=#E07A5F;fontColor=#393C56;" vertex="1" parent="1">
          <mxGeometry x="460" y="1100" width="120" height="60" as="geometry" />
        </mxCell>
        <mxCell id="FpE0hd-Hnbu36rUvG8yk-68" value="" style="edgeStyle=orthogonalEdgeStyle;rounded=0;orthogonalLoop=1;jettySize=auto;html=1;labelBackgroundColor=none;strokeColor=#E07A5F;fontColor=default;" edge="1" parent="1" source="FpE0hd-Hnbu36rUvG8yk-51" target="FpE0hd-Hnbu36rUvG8yk-64">
          <mxGeometry relative="1" as="geometry" />
        </mxCell>
        <mxCell id="FpE0hd-Hnbu36rUvG8yk-51" value="批量组件X" style="rounded=1;whiteSpace=wrap;html=1;labelBackgroundColor=none;fillColor=#F2CC8F;strokeColor=#E07A5F;fontColor=#393C56;" vertex="1" parent="1">
          <mxGeometry x="650" y="1100" width="120" height="60" as="geometry" />
        </mxCell>
        <mxCell id="FpE0hd-Hnbu36rUvG8yk-55" value="批量对象" style="shape=message;html=1;html=1;outlineConnect=0;labelPosition=center;verticalLabelPosition=bottom;align=center;verticalAlign=top;labelBackgroundColor=none;fillColor=#F2CC8F;strokeColor=#E07A5F;fontColor=#393C56;" vertex="1" parent="1">
          <mxGeometry x="275" y="990" width="60" height="40" as="geometry" />
        </mxCell>
        <mxCell id="FpE0hd-Hnbu36rUvG8yk-64" value="批量对象" style="shape=message;html=1;html=1;outlineConnect=0;labelPosition=center;verticalLabelPosition=bottom;align=center;verticalAlign=top;labelBackgroundColor=none;fillColor=#F2CC8F;strokeColor=#E07A5F;fontColor=#393C56;" vertex="1" parent="1">
          <mxGeometry x="680" y="990" width="60" height="40" as="geometry" />
        </mxCell>
        <mxCell id="FpE0hd-Hnbu36rUvG8yk-65" value="批量对象" style="shape=message;html=1;html=1;outlineConnect=0;labelPosition=center;verticalLabelPosition=bottom;align=center;verticalAlign=top;labelBackgroundColor=none;fillColor=#F2CC8F;strokeColor=#E07A5F;fontColor=#393C56;" vertex="1" parent="1">
          <mxGeometry x="490" y="990" width="60" height="40" as="geometry" />
        </mxCell>
        <mxCell id="FpE0hd-Hnbu36rUvG8yk-69" value="" style="edgeStyle=orthogonalEdgeStyle;rounded=0;orthogonalLoop=1;jettySize=auto;html=1;labelBackgroundColor=none;strokeColor=#E07A5F;fontColor=default;" edge="1" parent="1" source="FpE0hd-Hnbu36rUvG8yk-70" target="FpE0hd-Hnbu36rUvG8yk-78">
          <mxGeometry relative="1" as="geometry" />
        </mxCell>
        <mxCell id="FpE0hd-Hnbu36rUvG8yk-70" value="组件A" style="rounded=1;whiteSpace=wrap;html=1;labelBackgroundColor=none;fillColor=#F2CC8F;strokeColor=#E07A5F;fontColor=#393C56;" vertex="1" parent="1">
          <mxGeometry x="235" y="1350" width="120" height="60" as="geometry" />
        </mxCell>
        <mxCell id="FpE0hd-Hnbu36rUvG8yk-71" value="" style="endArrow=classic;html=1;rounded=0;labelBackgroundColor=none;strokeColor=#E07A5F;fontColor=default;" edge="1" parent="1">
          <mxGeometry relative="1" as="geometry">
            <mxPoint x="100" y="1260" as="sourcePoint" />
            <mxPoint x="1170" y="1260" as="targetPoint" />
          </mxGeometry>
        </mxCell>
        <mxCell id="FpE0hd-Hnbu36rUvG8yk-72" value="驱动二" style="edgeLabel;resizable=0;html=1;;align=center;verticalAlign=middle;fontSize=20;labelBackgroundColor=none;fontColor=#393C56;" connectable="0" vertex="1" parent="FpE0hd-Hnbu36rUvG8yk-71">
          <mxGeometry relative="1" as="geometry">
            <mxPoint x="-425" as="offset" />
          </mxGeometry>
        </mxCell>
        <mxCell id="FpE0hd-Hnbu36rUvG8yk-73" value="&lt;font style=&quot;font-size: 20px;&quot;&gt;流处理&lt;/font&gt;" style="edgeLabel;resizable=0;html=1;;align=left;verticalAlign=bottom;labelBackgroundColor=none;fontColor=#393C56;" connectable="0" vertex="1" parent="FpE0hd-Hnbu36rUvG8yk-71">
          <mxGeometry x="-1" relative="1" as="geometry" />
        </mxCell>
        <mxCell id="FpE0hd-Hnbu36rUvG8yk-74" value="" style="edgeStyle=orthogonalEdgeStyle;rounded=0;orthogonalLoop=1;jettySize=auto;html=1;labelBackgroundColor=none;strokeColor=#E07A5F;fontColor=default;" edge="1" parent="1" source="FpE0hd-Hnbu36rUvG8yk-75" target="FpE0hd-Hnbu36rUvG8yk-80">
          <mxGeometry relative="1" as="geometry" />
        </mxCell>
        <mxCell id="FpE0hd-Hnbu36rUvG8yk-75" value="组件B" style="rounded=1;whiteSpace=wrap;html=1;labelBackgroundColor=none;fillColor=#F2CC8F;strokeColor=#E07A5F;fontColor=#393C56;" vertex="1" parent="1">
          <mxGeometry x="450" y="1350" width="120" height="60" as="geometry" />
        </mxCell>
        <mxCell id="FpE0hd-Hnbu36rUvG8yk-76" value="" style="edgeStyle=orthogonalEdgeStyle;rounded=0;orthogonalLoop=1;jettySize=auto;html=1;labelBackgroundColor=none;strokeColor=#E07A5F;fontColor=default;" edge="1" parent="1" source="FpE0hd-Hnbu36rUvG8yk-77" target="FpE0hd-Hnbu36rUvG8yk-79">
          <mxGeometry relative="1" as="geometry" />
        </mxCell>
        <mxCell id="FpE0hd-Hnbu36rUvG8yk-77" value="组件E" style="rounded=1;whiteSpace=wrap;html=1;labelBackgroundColor=none;fillColor=#F2CC8F;strokeColor=#E07A5F;fontColor=#393C56;" vertex="1" parent="1">
          <mxGeometry x="640" y="1350" width="120" height="60" as="geometry" />
        </mxCell>
        <mxCell id="FpE0hd-Hnbu36rUvG8yk-78" value="业务对象" style="shape=message;html=1;html=1;outlineConnect=0;labelPosition=center;verticalLabelPosition=bottom;align=center;verticalAlign=top;labelBackgroundColor=none;fillColor=#F2CC8F;strokeColor=#E07A5F;fontColor=#393C56;" vertex="1" parent="1">
          <mxGeometry x="265" y="1240" width="60" height="40" as="geometry" />
        </mxCell>
        <mxCell id="FpE0hd-Hnbu36rUvG8yk-79" value="业务对象" style="shape=message;html=1;html=1;outlineConnect=0;labelPosition=center;verticalLabelPosition=bottom;align=center;verticalAlign=top;labelBackgroundColor=none;fillColor=#F2CC8F;strokeColor=#E07A5F;fontColor=#393C56;" vertex="1" parent="1">
          <mxGeometry x="670" y="1240" width="60" height="40" as="geometry" />
        </mxCell>
        <mxCell id="FpE0hd-Hnbu36rUvG8yk-80" value="业务对象" style="shape=message;html=1;html=1;outlineConnect=0;labelPosition=center;verticalLabelPosition=bottom;align=center;verticalAlign=top;labelBackgroundColor=none;fillColor=#F2CC8F;strokeColor=#E07A5F;fontColor=#393C56;" vertex="1" parent="1">
          <mxGeometry x="480" y="1240" width="60" height="40" as="geometry" />
        </mxCell>
      </root>
    </mxGraphModel>
  </diagram>
</mxfile>
